<svg width="1121" height="327" viewBox="0 0 1121 327" fill="none" xmlns="http://www.w3.org/2000/svg">
<path d="M1120 326.3C1120.17 326.3 1120.3 326.166 1120.3 326C1120.3 325.834 1120.17 325.7 1120 325.7L1120 326.3ZM49 326.3L1120 326.3L1120 325.7L49 325.7L49 326.3Z" fill="black" fill-opacity="0.16"/>
<path d="M5.17 113.997H6.083V114.954H5.17V117H4.114V114.954H0.33L0.099 114.294L4.543 108.871H5.17V113.997ZM4.114 110.862L1.551 113.997H4.114V110.862ZM10.2713 117.132C9.13825 117.132 8.26925 116.593 7.78525 115.757C7.31225 114.921 7.09225 113.975 7.09225 112.93C7.09225 111.885 7.31225 110.939 7.78525 110.103C8.26925 109.267 9.13825 108.728 10.2713 108.728C12.6253 108.728 13.4393 110.961 13.4393 112.93C13.4393 114.899 12.6253 117.132 10.2713 117.132ZM12.3283 112.93C12.3283 112.006 12.1633 111.247 11.8223 110.653C11.4813 110.048 10.9643 109.751 10.2713 109.751C9.57825 109.751 9.06125 110.048 8.72025 110.653C8.37925 111.247 8.21425 112.006 8.21425 112.93C8.21425 113.865 8.37925 114.624 8.72025 115.218C9.06125 115.812 9.57825 116.109 10.2713 116.109C10.9643 116.109 11.4813 115.812 11.8223 115.218C12.1633 114.624 12.3283 113.865 12.3283 112.93ZM17.7371 117.132C16.6041 117.132 15.7351 116.593 15.2511 115.757C14.7781 114.921 14.5581 113.975 14.5581 112.93C14.5581 111.885 14.7781 110.939 15.2511 110.103C15.7351 109.267 16.6041 108.728 17.7371 108.728C20.0911 108.728 20.9051 110.961 20.9051 112.93C20.9051 114.899 20.0911 117.132 17.7371 117.132ZM19.7941 112.93C19.7941 112.006 19.6291 111.247 19.2881 110.653C18.9471 110.048 18.4301 109.751 17.7371 109.751C17.0441 109.751 16.5271 110.048 16.1861 110.653C15.8451 111.247 15.6801 112.006 15.6801 112.93C15.6801 113.865 15.8451 114.624 16.1861 115.218C16.5271 115.812 17.0441 116.109 17.7371 116.109C18.4301 116.109 18.9471 115.812 19.2881 115.218C19.6291 114.624 19.7941 113.865 19.7941 112.93Z" fill="#0A150F" fill-opacity="0.5"/>
<path d="M3.135 58.698C3.916 58.698 4.565 58.951 5.082 59.468C5.599 59.974 5.863 60.612 5.863 61.393C5.863 62.185 5.588 62.845 5.049 63.362C4.51 63.879 3.817 64.132 2.981 64.132C2.024 64.132 1.155 63.802 0.374 63.153L0.891 62.295C1.551 62.845 2.233 63.12 2.937 63.12C3.476 63.12 3.905 62.955 4.246 62.636C4.587 62.306 4.752 61.899 4.752 61.404C4.752 60.92 4.587 60.513 4.257 60.194C3.927 59.864 3.509 59.699 3.003 59.699C2.42 59.699 1.914 59.919 1.507 60.348L0.781 59.93L1.243 55.871H5.313V56.85H2.09L1.815 59.017C2.222 58.808 2.662 58.698 3.135 58.698ZM10.0349 64.132C8.90192 64.132 8.03292 63.593 7.54892 62.757C7.07592 61.921 6.85592 60.975 6.85592 59.93C6.85592 58.885 7.07592 57.939 7.54892 57.103C8.03292 56.267 8.90192 55.728 10.0349 55.728C12.3889 55.728 13.2029 57.961 13.2029 59.93C13.2029 61.899 12.3889 64.132 10.0349 64.132ZM12.0919 59.93C12.0919 59.006 11.9269 58.247 11.5859 57.653C11.2449 57.048 10.7279 56.751 10.0349 56.751C9.34192 56.751 8.82492 57.048 8.48392 57.653C8.14292 58.247 7.97792 59.006 7.97792 59.93C7.97792 60.865 8.14292 61.624 8.48392 62.218C8.82492 62.812 9.34192 63.109 10.0349 63.109C10.7279 63.109 11.2449 62.812 11.5859 62.218C11.9269 61.624 12.0919 60.865 12.0919 59.93ZM17.5007 64.132C16.3677 64.132 15.4987 63.593 15.0147 62.757C14.5417 61.921 14.3217 60.975 14.3217 59.93C14.3217 58.885 14.5417 57.939 15.0147 57.103C15.4987 56.267 16.3677 55.728 17.5007 55.728C19.8547 55.728 20.6687 57.961 20.6687 59.93C20.6687 61.899 19.8547 64.132 17.5007 64.132ZM19.5577 59.93C19.5577 59.006 19.3927 58.247 19.0517 57.653C18.7107 57.048 18.1937 56.751 17.5007 56.751C16.8077 56.751 16.2907 57.048 15.9497 57.653C15.6087 58.247 15.4437 59.006 15.4437 59.93C15.4437 60.865 15.6087 61.624 15.9497 62.218C16.2907 62.812 16.8077 63.109 17.5007 63.109C18.1937 63.109 18.7107 62.812 19.0517 62.218C19.3927 61.624 19.5577 60.865 19.5577 59.93Z" fill="#0A150F" fill-opacity="0.5"/>
<path d="M3.52 11.099C2.563 11.099 1.837 10.736 1.331 9.999C0.825 9.262 0.572 8.316 0.572 7.183C0.572 4.928 1.639 2.728 3.938 2.728C4.763 2.728 5.456 2.959 6.017 3.41L5.555 4.235C5.082 3.872 4.565 3.685 4.004 3.685C2.343 3.674 1.628 5.599 1.639 6.941V6.985C1.98 6.248 2.772 5.753 3.74 5.753C4.477 5.753 5.082 6.006 5.566 6.501C6.05 6.996 6.292 7.623 6.292 8.382C6.292 9.163 6.028 9.812 5.511 10.329C4.994 10.846 4.323 11.099 3.52 11.099ZM3.531 10.12C4.004 10.12 4.411 9.955 4.73 9.625C5.06 9.284 5.225 8.877 5.225 8.382C5.225 7.898 5.06 7.502 4.741 7.183C4.422 6.864 4.026 6.71 3.553 6.71C3.069 6.71 2.662 6.875 2.343 7.194C2.024 7.513 1.859 7.909 1.859 8.393C1.859 8.877 2.024 9.284 2.343 9.625C2.662 9.955 3.058 10.12 3.531 10.12ZM10.5076 11.132C9.37458 11.132 8.50558 10.593 8.02158 9.757C7.54858 8.921 7.32858 7.975 7.32858 6.93C7.32858 5.885 7.54858 4.939 8.02158 4.103C8.50558 3.267 9.37458 2.728 10.5076 2.728C12.8616 2.728 13.6756 4.961 13.6756 6.93C13.6756 8.899 12.8616 11.132 10.5076 11.132ZM12.5646 6.93C12.5646 6.006 12.3996 5.247 12.0586 4.653C11.7176 4.048 11.2006 3.751 10.5076 3.751C9.81458 3.751 9.29758 4.048 8.95658 4.653C8.61558 5.247 8.45058 6.006 8.45058 6.93C8.45058 7.865 8.61558 8.624 8.95658 9.218C9.29758 9.812 9.81458 10.109 10.5076 10.109C11.2006 10.109 11.7176 9.812 12.0586 9.218C12.3996 8.624 12.5646 7.865 12.5646 6.93ZM17.9734 11.132C16.8404 11.132 15.9714 10.593 15.4874 9.757C15.0144 8.921 14.7944 7.975 14.7944 6.93C14.7944 5.885 15.0144 4.939 15.4874 4.103C15.9714 3.267 16.8404 2.728 17.9734 2.728C20.3274 2.728 21.1414 4.961 21.1414 6.93C21.1414 8.899 20.3274 11.132 17.9734 11.132ZM20.0304 6.93C20.0304 6.006 19.8654 5.247 19.5244 4.653C19.1834 4.048 18.6664 3.751 17.9734 3.751C17.2804 3.751 16.7634 4.048 16.4224 4.653C16.0814 5.247 15.9164 6.006 15.9164 6.93C15.9164 7.865 16.0814 8.624 16.4224 9.218C16.7634 9.812 17.2804 10.109 17.9734 10.109C18.6664 10.109 19.1834 9.812 19.5244 9.218C19.8654 8.624 20.0304 7.865 20.0304 6.93Z" fill="#0A150F" fill-opacity="0.5"/>
<path d="M2.728 170.132C1.859 170.132 1.023 169.868 0.231 169.329L0.726 168.438C1.441 168.889 2.112 169.12 2.717 169.12C3.729 169.12 4.367 168.559 4.367 167.734C4.367 166.898 3.674 166.315 2.695 166.315H1.694V165.336H2.684C3.575 165.336 4.213 164.797 4.213 164.016C4.213 163.224 3.586 162.74 2.761 162.74C2.189 162.74 1.595 162.982 0.979 163.455L0.418 162.685C1.001 162.102 1.936 161.728 2.849 161.728C3.586 161.728 4.18 161.937 4.642 162.344C5.104 162.751 5.335 163.268 5.335 163.873C5.335 164.753 4.763 165.468 3.927 165.732V165.776C4.906 165.996 5.511 166.788 5.511 167.767C5.511 168.46 5.247 169.032 4.73 169.472C4.213 169.912 3.553 170.132 2.728 170.132ZM9.83082 170.132C8.69782 170.132 7.82882 169.593 7.34482 168.757C6.87182 167.921 6.65182 166.975 6.65182 165.93C6.65182 164.885 6.87182 163.939 7.34482 163.103C7.82882 162.267 8.69782 161.728 9.83082 161.728C12.1848 161.728 12.9988 163.961 12.9988 165.93C12.9988 167.899 12.1848 170.132 9.83082 170.132ZM11.8878 165.93C11.8878 165.006 11.7228 164.247 11.3818 163.653C11.0408 163.048 10.5238 162.751 9.83082 162.751C9.13782 162.751 8.62082 163.048 8.27982 163.653C7.93882 164.247 7.77382 165.006 7.77382 165.93C7.77382 166.865 7.93882 167.624 8.27982 168.218C8.62082 168.812 9.13782 169.109 9.83082 169.109C10.5238 169.109 11.0408 168.812 11.3818 168.218C11.7228 167.624 11.8878 166.865 11.8878 165.93ZM17.2966 170.132C16.1636 170.132 15.2946 169.593 14.8106 168.757C14.3376 167.921 14.1176 166.975 14.1176 165.93C14.1176 164.885 14.3376 163.939 14.8106 163.103C15.2946 162.267 16.1636 161.728 17.2966 161.728C19.6506 161.728 20.4646 163.961 20.4646 165.93C20.4646 167.899 19.6506 170.132 17.2966 170.132ZM19.3536 165.93C19.3536 165.006 19.1886 164.247 18.8476 163.653C18.5066 163.048 17.9896 162.751 17.2966 162.751C16.6036 162.751 16.0866 163.048 15.7456 163.653C15.4046 164.247 15.2396 165.006 15.2396 165.93C15.2396 166.865 15.4046 167.624 15.7456 168.218C16.0866 168.812 16.6036 169.109 17.2966 169.109C17.9896 169.109 18.5066 168.812 18.8476 168.218C19.1886 167.624 19.3536 166.865 19.3536 165.93Z" fill="#0A150F" fill-opacity="0.5"/>
<path d="M4.367 219.491L2.101 221.988H5.599V223H0.528V222.087L3.135 219.293C4.015 218.38 4.433 217.819 4.433 217.115C4.433 216.312 3.795 215.74 2.959 215.74C2.288 215.74 1.628 216.048 0.99 216.664L0.385 215.883C1.166 215.113 2.035 214.728 2.981 214.728C3.718 214.728 4.323 214.948 4.796 215.399C5.269 215.85 5.5 216.433 5.5 217.17C5.5 217.885 5.126 218.655 4.367 219.491ZM9.88453 223.132C8.75153 223.132 7.88253 222.593 7.39853 221.757C6.92553 220.921 6.70553 219.975 6.70553 218.93C6.70553 217.885 6.92553 216.939 7.39853 216.103C7.88253 215.267 8.75153 214.728 9.88453 214.728C12.2385 214.728 13.0525 216.961 13.0525 218.93C13.0525 220.899 12.2385 223.132 9.88453 223.132ZM11.9415 218.93C11.9415 218.006 11.7765 217.247 11.4355 216.653C11.0945 216.048 10.5775 215.751 9.88453 215.751C9.19153 215.751 8.67453 216.048 8.33353 216.653C7.99253 217.247 7.82753 218.006 7.82753 218.93C7.82753 219.865 7.99253 220.624 8.33353 221.218C8.67453 221.812 9.19153 222.109 9.88453 222.109C10.5775 222.109 11.0945 221.812 11.4355 221.218C11.7765 220.624 11.9415 219.865 11.9415 218.93ZM17.3504 223.132C16.2174 223.132 15.3484 222.593 14.8644 221.757C14.3914 220.921 14.1714 219.975 14.1714 218.93C14.1714 217.885 14.3914 216.939 14.8644 216.103C15.3484 215.267 16.2174 214.728 17.3504 214.728C19.7044 214.728 20.5184 216.961 20.5184 218.93C20.5184 220.899 19.7044 223.132 17.3504 223.132ZM19.4074 218.93C19.4074 218.006 19.2424 217.247 18.9014 216.653C18.5604 216.048 18.0434 215.751 17.3504 215.751C16.6574 215.751 16.1404 216.048 15.7994 216.653C15.4584 217.247 15.2934 218.006 15.2934 218.93C15.2934 219.865 15.4584 220.624 15.7994 221.218C16.1404 221.812 16.6574 222.109 17.3504 222.109C18.0434 222.109 18.5604 221.812 18.9014 221.218C19.2424 220.624 19.4074 219.865 19.4074 218.93Z" fill="#0A150F" fill-opacity="0.5"/>
<path d="M0.044 269.807L2.343 267.871H3.212V276H2.123V269.334L0.649 270.566L0.044 269.807ZM7.98316 276.132C6.85016 276.132 5.98116 275.593 5.49716 274.757C5.02416 273.921 4.80416 272.975 4.80416 271.93C4.80416 270.885 5.02416 269.939 5.49716 269.103C5.98116 268.267 6.85016 267.728 7.98316 267.728C10.3372 267.728 11.1512 269.961 11.1512 271.93C11.1512 273.899 10.3372 276.132 7.98316 276.132ZM10.0402 271.93C10.0402 271.006 9.87516 270.247 9.53416 269.653C9.19316 269.048 8.67616 268.751 7.98316 268.751C7.29016 268.751 6.77316 269.048 6.43216 269.653C6.09116 270.247 5.92616 271.006 5.92616 271.93C5.92616 272.865 6.09116 273.624 6.43216 274.218C6.77316 274.812 7.29016 275.109 7.98316 275.109C8.67616 275.109 9.19316 274.812 9.53416 274.218C9.87516 273.624 10.0402 272.865 10.0402 271.93ZM15.449 276.132C14.316 276.132 13.447 275.593 12.963 274.757C12.49 273.921 12.27 272.975 12.27 271.93C12.27 270.885 12.49 269.939 12.963 269.103C13.447 268.267 14.316 267.728 15.449 267.728C17.803 267.728 18.617 269.961 18.617 271.93C18.617 273.899 17.803 276.132 15.449 276.132ZM17.506 271.93C17.506 271.006 17.341 270.247 17 269.653C16.659 269.048 16.142 268.751 15.449 268.751C14.756 268.751 14.239 269.048 13.898 269.653C13.557 270.247 13.392 271.006 13.392 271.93C13.392 272.865 13.557 273.624 13.898 274.218C14.239 274.812 14.756 275.109 15.449 275.109C16.142 275.109 16.659 274.812 17 274.218C17.341 273.624 17.506 272.865 17.506 271.93Z" fill="#0A150F" fill-opacity="0.5"/>
<path d="M1120 274.3C1120.17 274.3 1120.3 274.166 1120.3 274C1120.3 273.834 1120.17 273.7 1120 273.7L1120 274.3ZM49 274.3L1120 274.3L1120 273.7L49 273.7L49 274.3Z" fill="black" fill-opacity="0.16"/>
<path d="M1120 220.3C1120.17 220.3 1120.3 220.166 1120.3 220C1120.3 219.834 1120.17 219.7 1120 219.7L1120 220.3ZM49 220.3L1120 220.3L1120 219.7L49 219.7L49 220.3Z" fill="black" fill-opacity="0.16"/>
<path d="M1120 168.3C1120.17 168.3 1120.3 168.166 1120.3 168C1120.3 167.834 1120.17 167.7 1120 167.7L1120 168.3ZM49 168.3L1120 168.3L1120 167.7L49 167.7L49 168.3Z" fill="black" fill-opacity="0.16"/>
<path d="M1120 115.3C1120.17 115.3 1120.3 115.166 1120.3 115C1120.3 114.834 1120.17 114.7 1120 114.7L1120 115.3ZM49 115.3L1120 115.3L1120 114.7L49 114.7L49 115.3Z" fill="black" fill-opacity="0.16"/>
<path d="M1120 62.2999C1120.17 62.2999 1120.3 62.1656 1120.3 61.9999C1120.3 61.8342 1120.17 61.6999 1120 61.6999L1120 62.2999ZM49 62.3L1120 62.2999L1120 61.6999L49 61.7L49 62.3Z" fill="black" fill-opacity="0.16"/>
<path d="M1120 9.29991C1120.17 9.29991 1120.3 9.16559 1120.3 8.99991C1120.3 8.83422 1120.17 8.69991 1120 8.69991L1120 9.29991ZM49 9.3L1120 9.29991L1120 8.69991L49 8.7L49 9.3Z" fill="black" fill-opacity="0.16"/>
<path d="M55 72C55 66.4772 59.4772 62 65 62C70.5228 62 75 66.4772 75 72V326H55V72Z" fill="#FC5874"/>
<path d="M79 146C79 140.477 83.4772 136 89 136C94.5228 136 99 140.477 99 146V326H79V146Z" fill="#167EFB"/>
<path d="M147 234C147 228.477 151.477 224 157 224C162.523 224 167 228.477 167 234V326H147V234Z" fill="#FC5874"/>
<path d="M171 116C171 110.477 175.477 106 181 106C186.523 106 191 110.477 191 116V326H171V116Z" fill="#167EFB"/>
<path d="M239 56C239 50.4771 243.477 46 249 46C254.523 46 259 50.4772 259 56V326H239V56Z" fill="#FC5874"/>
<path d="M263 266C263 260.477 267.477 256 273 256C278.523 256 283 260.477 283 266V326H263V266Z" fill="#167EFB"/>
<path d="M331 99C331 93.4771 335.477 89 341 89C346.523 89 351 93.4772 351 99V326H331V99Z" fill="#FC5874"/>
<path d="M355 177C355 171.477 359.477 167 365 167C370.523 167 375 171.477 375 177V326H355V177Z" fill="#167EFB"/>
<path d="M423 249C423 243.477 427.477 239 433 239C438.523 239 443 243.477 443 249V326H423V249Z" fill="#FC5874"/>
<path d="M447 99C447 93.4771 451.477 89 457 89C462.523 89 467 93.4772 467 99V326H447V99Z" fill="#167EFB"/>
<path d="M515 230C515 224.477 519.477 220 525 220C530.523 220 535 224.477 535 230V326H515V230Z" fill="#FC5874"/>
<path d="M539 19C539 13.4772 543.477 9 549 9C554.523 9 559 13.4772 559 19V326H539V19Z" fill="#167EFB"/>
<path d="M607 284C607 278.477 611.477 274 617 274C622.523 274 627 278.477 627 284V326H607V284Z" fill="#FC5874"/>
<path d="M631 230C631 224.477 635.477 220 641 220C646.523 220 651 224.477 651 230V326H631V230Z" fill="#167EFB"/>
<path d="M699 72C699 66.4772 703.477 62 709 62C714.523 62 719 66.4772 719 72V326H699V72Z" fill="#FC5874"/>
<path d="M723 178C723 172.477 727.477 168 733 168C738.523 168 743 172.477 743 178V326H723V178Z" fill="#167EFB"/>
<path d="M791 230C791 224.477 795.477 220 801 220C806.523 220 811 224.477 811 230V326H791V230Z" fill="#FC5874"/>
<path d="M815 146C815 140.477 819.477 136 825 136C830.523 136 835 140.477 835 146V326H815V146Z" fill="#167EFB"/>
<path d="M883 80C883 74.4772 887.477 70 893 70C898.523 70 903 74.4772 903 80V326H883V80Z" fill="#FC5874"/>
<path d="M907 178C907 172.477 911.477 168 917 168C922.523 168 927 172.477 927 178V326H907V178Z" fill="#167EFB"/>
<path d="M975 284C975 278.477 979.477 274 985 274C990.523 274 995 278.477 995 284V326H975V284Z" fill="#FC5874"/>
<path d="M999 125C999 119.477 1003.48 115 1009 115C1014.52 115 1019 119.477 1019 125V326H999V125Z" fill="#167EFB"/>
<path d="M1067 56C1067 50.4771 1071.48 46 1077 46C1082.52 46 1087 50.4772 1087 56V326H1067V56Z" fill="#FC5874"/>
<path d="M1091 230C1091 224.477 1095.48 220 1101 220C1106.52 220 1111 224.477 1111 230V326H1091V230Z" fill="#167EFB"/>
</svg>
